# xmcd CD database file generated by OrangeCD 5.2
#
# Track frame offsets:
#	150
#	31635
#	49009
#	70526
#	81634
#	102855
#	120376
#	147428
#	167315
#	183975
#	206948
#	224320
#	240264
#
# Disc length: 3450 seconds
#
# Revision: 0
# Processed by: cddbd v1.5.1PL0 Copyright (c) Steve Scherf et al.
# Submitted via: OrangeCD 5.2
#
DISCID=aa0d780d
DTITLE=Various Artist - Cold Hands Seduction Vol. XV
DYEAR=2002
DGENRE=
TTITLE0=Oneiroid Psychosis - Winter Day
TTITLE1=Tapping The Vein - The Ledge
TTITLE2=Die My Darling - God Has Stopped Speaking
TTITLE3=Project Pitchfork - Firetrap (Live)
TTITLE4=Tiamat - The Truth's For Sale
TTITLE5=Flowing Tears - Serpentine
TTITLE6=Anubis - Ruinen
TTITLE7=Underground Moon - Open Circles
TTITLE8=New Model Army - Freedom
TTITLE9=trümmerwelten - The Phoenix Dies
TTITLE10=Zentriert ins Antlitz - Ob die Engel auch Beine haben
TTITLE11=Illuminate - Eisgang
TTITLE12=Boshetunmay - Vote For The Black
EXTD=
EXTT0=
EXTT1=
EXTT2=
EXTT3=
EXTT4=
EXTT5=
EXTT6=
EXTT7=
EXTT8=
EXTT9=
EXTT10=
EXTT11=
EXTT12=
PLAYORDER=
